<svg width="142" height="92" viewBox="0 0 142 92" fill="none" xmlns="http://www.w3.org/2000/svg">
<path d="M18.5254 54H24.7559C26.4245 54 27.7601 53.6097 28.7627 52.8291C29.7725 52.0413 30.2773 50.9385 30.2773 49.5205C30.2773 48.4893 30.0374 47.6621 29.5576 47.0391C29.085 46.416 28.487 46.0007 27.7637 45.793V45.75C28.3509 45.5423 28.8415 45.1592 29.2354 44.6006C29.6292 44.042 29.8262 43.3294 29.8262 42.4629C29.8262 41.0807 29.3535 40.0531 28.4082 39.3799C27.4701 38.6995 26.1523 38.3594 24.4551 38.3594H18.5254V54ZM21.8662 51.6367V46.9961H24.5195C25.3359 46.9961 25.9339 47.2074 26.3135 47.6299C26.7002 48.0452 26.8936 48.6074 26.8936 49.3164C26.8936 50.0254 26.7002 50.5911 26.3135 51.0137C25.9339 51.429 25.3359 51.6367 24.5195 51.6367H21.8662ZM21.8662 44.8369V40.7549H24.2295C25.0387 40.7549 25.6188 40.9303 25.9697 41.2812C26.3278 41.6322 26.5068 42.1335 26.5068 42.7852C26.5068 43.4297 26.3278 43.9346 25.9697 44.2998C25.6188 44.6579 25.0387 44.8369 24.2295 44.8369H21.8662ZM32.458 54H35.7559V42.9355H32.458V54ZM32.2002 39.7344C32.2002 40.2285 32.3613 40.6439 32.6836 40.9805C33.013 41.3171 33.4857 41.4854 34.1016 41.4854C34.7174 41.4854 35.1901 41.3171 35.5195 40.9805C35.849 40.6439 36.0137 40.2285 36.0137 39.7344C36.0137 39.2402 35.849 38.8285 35.5195 38.499C35.1901 38.1624 34.721 37.9941 34.1123 37.9941C33.4964 37.9941 33.0238 38.1624 32.6943 38.499C32.3649 38.8285 32.2002 39.2402 32.2002 39.7344ZM38.4092 54H41.707V37.6934H38.4092V54ZM43.7588 48.6289C43.7588 50.362 44.2923 51.7441 45.3594 52.7754C46.4264 53.7995 47.8229 54.3115 49.5488 54.3115C51.2747 54.3115 52.6712 53.7995 53.7383 52.7754C54.8125 51.7441 55.3496 50.362 55.3496 48.6289V48.2852C55.3496 46.5521 54.8125 45.1735 53.7383 44.1494C52.6712 43.1253 51.2747 42.6133 49.5488 42.6133C47.8301 42.6133 46.4336 43.1253 45.3594 44.1494C44.2923 45.1735 43.7588 46.5521 43.7588 48.2852V48.6289ZM47.0996 48.124C47.0996 47.1357 47.3145 46.3802 47.7441 45.8574C48.1738 45.3275 48.7754 45.0625 49.5488 45.0625C50.3223 45.0625 50.9238 45.3275 51.3535 45.8574C51.7832 46.3802 51.998 47.1357 51.998 48.124V48.79C51.998 49.7855 51.7868 50.5482 51.3643 51.0781C50.9417 51.6009 50.3366 51.8623 49.5488 51.8623C48.7682 51.8623 48.1631 51.6009 47.7334 51.0781C47.3109 50.5482 47.0996 49.7891 47.0996 48.8008V48.124ZM57.4014 54H60.6992V37.6934H57.4014V54Z" fill="black"/>
<rect x="71" y="24" width="57.7261" height="44.7619" rx="10" fill="#F8981D"/>
<path d="M81.337 54.014L84.6239 54.0509L84.6775 46.7787C84.8529 46.3008 85.1099 45.9312 85.4484 45.6701C85.7941 45.4018 86.2033 45.2703 86.6759 45.2756C87.2059 45.2816 87.6237 45.4366 87.9294 45.7409C88.2422 46.0452 88.3961 46.5482 88.3909 47.25L88.3405 54.0926L91.6166 54.1294L91.6691 47.0183C91.6799 45.5431 91.3476 44.4758 90.6721 43.8165C90.0039 43.1501 89.1434 42.811 88.0907 42.7992C87.2672 42.7899 86.575 42.9397 86.0141 43.2485C85.4532 43.5574 85.0099 43.957 84.684 44.4475L84.7334 37.7446L81.4572 37.7078L81.337 54.014ZM94.0967 49.9461C94.085 51.5359 94.4275 52.6785 95.1242 53.3738C95.8282 54.0621 96.7351 54.4125 97.8451 54.4249C98.5755 54.4331 99.2281 54.3044 99.803 54.0387C100.378 53.773 100.825 53.4092 101.143 52.9472L101.197 52.9478L101.252 54.2376L104.388 54.2728L104.47 43.2086L101.194 43.1718L101.139 50.5408C100.95 50.9469 100.672 51.2875 100.305 51.5627C99.9375 51.8307 99.5175 51.9621 99.0449 51.9568C98.5293 51.951 98.1222 51.8032 97.8236 51.5134C97.5249 51.2236 97.3783 50.7063 97.3838 49.9615L97.4342 43.1296L94.1473 43.0927L94.0967 49.9461ZM106.988 54.3019L110.124 54.3372L110.187 53.0917L110.241 53.0923C110.481 53.5247 110.894 53.8803 111.479 54.159C112.064 54.4377 112.711 54.5811 113.42 54.589C114.838 54.6049 115.973 54.0984 116.826 53.0695C117.686 52.0336 118.122 50.6884 118.134 49.0342L118.137 48.6904C118.149 47.0505 117.736 45.7102 116.899 44.6695C116.069 43.6289 114.944 43.1006 113.527 43.0847C112.825 43.0768 112.205 43.1916 111.666 43.429C111.134 43.6666 110.691 44.0054 110.337 44.4454L110.384 38.0325L107.108 37.9957L106.988 54.3019ZM110.292 50.5791L110.318 47.0342C110.485 46.6279 110.757 46.2728 111.131 45.9691C111.506 45.6582 111.976 45.5059 112.542 45.5122C113.322 45.521 113.893 45.8067 114.254 46.3694C114.623 46.925 114.804 47.654 114.797 48.5563L114.793 49.1256C114.786 50.0279 114.594 50.7599 114.218 51.3214C113.841 51.883 113.277 52.1595 112.525 52.1511C111.938 52.1445 111.459 51.9851 111.089 51.673C110.719 51.3538 110.453 50.9891 110.292 50.5791Z" fill="black"/>
</svg>
